<?xml version="1.0" standalone="no"?>
<!DOCTYPE svg PUBLIC "-//W3C//DTD SVG 20010904//EN"
 "http://www.w3.org/TR/2001/REC-SVG-20010904/DTD/svg10.dtd">
<svg version="1.0" xmlns="http://www.w3.org/2000/svg"
 width="342.000000pt" height="1121.000000pt" viewBox="0 0 342.000000 1121.000000"
 preserveAspectRatio="xMidYMid meet">

<g transform="translate(0.000000,1121.000000) scale(0.100000,-0.100000)"
fill="#000000" stroke="none">
<path d="M1825 11110 c2 -30 20 -122 39 -205 20 -82 36 -153 36 -157 0 -13
-35 -9 -56 7 -10 8 -27 15 -36 15 -10 0 -23 10 -29 23 -19 36 -59 52 -59 24 0
-10 -12 -11 -59 -3 -73 12 -170 -11 -230 -54 -41 -30 -91 -117 -91 -160 0 -28
-46 -84 -61 -75 -5 4 -25 0 -45 -7 -33 -12 -35 -14 -29 -47 4 -23 2 -37 -7
-42 -27 -18 -37 -10 -31 26 5 30 2 38 -23 58 -20 15 -42 22 -73 22 -42 0 -45
2 -53 33 -12 45 -38 41 -87 -14 -23 -26 -41 -42 -41 -35 0 6 -11 11 -25 11
-29 0 -33 -24 -10 -54 14 -19 15 -19 15 7 0 19 4 25 15 21 17 -7 22 -109 5
-119 -5 -3 -10 -14 -10 -24 0 -9 -7 -26 -15 -37 -14 -19 -15 -18 -40 9 -28 30
-37 32 -66 17 -16 -9 -21 -7 -29 12 -8 20 -9 19 -9 -14 -1 -21 -5 -38 -10 -38
-13 0 -34 60 -71 203 -35 134 -48 159 -31 61 18 -112 23 -174 12 -174 -19 0
-31 38 -32 102 l-1 63 -16 -72 c-9 -40 -19 -73 -22 -73 -4 0 -12 26 -18 58
-10 55 -11 54 -7 -38 3 -65 2 -90 -5 -80 -7 10 -8 -8 -4 -56 6 -65 4 -74 -21
-114 -15 -24 -30 -61 -32 -82 -4 -29 -10 -38 -24 -38 -11 0 -19 -4 -19 -10 0
-5 -10 -10 -23 -10 -24 0 -50 -23 -81 -74 -22 -35 -30 -27 -46 52 -16 80 -23
75 -11 -9 10 -70 7 -85 -9 -48 -9 21 -10 20 -5 -11 17 -124 3 -240 -31 -240
-14 0 -28 -108 -18 -136 4 -10 14 -27 23 -37 13 -16 13 -19 1 -27 -12 -7 -11
-12 3 -28 14 -16 34 -65 42 -102 0 -3 7 -16 14 -29 11 -20 11 -25 0 -32 -11
-6 -14 -36 -13 -119 l0 -110 -29 27 c-16 16 -38 46 -48 68 -24 53 -43 79 -34
46 7 -22 5 -23 -19 -17 -21 5 -24 3 -19 -11 13 -36 -23 5 -42 47 -10 22 -22
40 -27 40 -5 0 -7 -29 -5 -65 3 -55 8 -70 32 -95 16 -17 32 -30 37 -30 4 0 27
-15 51 -33 24 -18 58 -39 75 -46 65 -27 49 -85 -33 -122 l-40 -18 33 0 c23 -1
40 7 57 25 30 32 32 27 40 -131 7 -126 30 -338 45 -415 32 -158 57 -587 34
-583 -7 1 -11 -49 -12 -160 -1 -89 -3 -263 -4 -387 l-3 -225 -59 -120 c-65
-134 -99 -215 -92 -222 2 -3 7 5 11 16 3 12 11 21 16 21 12 0 12 -1 -6 -43
-17 -41 -20 -71 -4 -44 6 9 15 15 20 11 6 -3 19 2 30 12 22 19 24 13 8 -19
-12 -22 -12 -22 10 -3 12 11 20 24 18 30 -2 6 4 19 14 30 10 10 30 42 44 70
14 28 35 62 45 76 l20 25 0 -27 c0 -24 -106 -236 -149 -297 -17 -24 -111 -206
-111 -215 0 -2 9 -6 21 -9 18 -5 20 -11 14 -39 -3 -18 -19 -67 -35 -108 -40
-103 -103 -300 -98 -306 7 -6 103 117 126 162 24 48 145 180 172 189 50 16 89
-44 66 -99 -11 -28 -12 -36 -1 -47 27 -29 26 -55 -5 -94 -16 -21 -30 -44 -30
-51 0 -7 -15 -21 -33 -33 -18 -11 -44 -32 -57 -47 -27 -29 -14 -25 37 12 40
30 45 30 31 -1 -6 -14 -18 -25 -25 -25 -8 0 -11 -5 -8 -10 4 -7 13 -7 26 0 17
10 19 7 19 -21 0 -46 -28 -145 -57 -203 -15 -29 -21 -52 -15 -54 7 -2 7 -15 0
-39 -7 -27 -7 -38 4 -44 8 -5 14 -4 16 4 15 54 100 177 123 177 6 0 -2 -20
-17 -45 -41 -72 -21 -52 37 34 29 44 57 78 61 75 13 -8 10 -142 -3 -146 -6 -2
-13 -22 -14 -45 -4 -43 -20 -83 -34 -83 -18 0 -16 -45 2 -63 19 -19 19 -18 11
5 -4 12 -7 28 -7 33 0 9 52 95 146 245 19 30 43 71 52 90 10 19 20 30 22 23 4
-11 -23 -72 -36 -83 -3 -3 -18 -32 -34 -65 -22 -49 -24 -55 -6 -32 11 15 25
25 30 21 5 -3 9 6 9 20 0 27 19 39 35 22 14 -15 37 -267 25 -281 -5 -6 -10
-42 -12 -80 -2 -54 -6 -70 -18 -70 -10 0 -17 14 -21 40 l-6 40 -2 -37 c-1 -43
-13 -49 -29 -15 -9 19 -11 17 -11 -23 -1 -26 4 -51 10 -57 9 -9 8 -16 -5 -28
-9 -9 -16 -23 -16 -31 0 -22 -14 -17 -32 14 l-17 27 -1 -47 c0 -62 -15 -61
-31 2 -7 27 -16 47 -21 44 -4 -3 -11 3 -14 13 -28 87 -44 97 -33 21 29 -194
38 -372 42 -780 3 -352 6 -440 17 -453 11 -13 11 -18 1 -24 -10 -7 -11 -42 -5
-172 l8 -164 7 111 c7 119 16 172 30 190 6 7 2 30 -11 60 -12 26 -20 59 -18
73 2 21 9 26 34 27 29 1 32 -2 38 -34 5 -35 -2 -59 -11 -34 -10 26 -25 11 -19
-18 3 -17 9 -44 12 -60 4 -17 2 -36 -4 -43 -12 -14 33 -208 68 -292 5 -11 11
-27 13 -35 3 -8 6 15 6 52 1 43 -3 68 -11 70 -8 3 -12 38 -13 109 -1 57 -3
154 -5 214 -3 150 -4 145 25 145 16 0 25 -6 25 -15 0 -10 7 -15 18 -13 11 2
18 -4 20 -19 2 -17 -1 -21 -11 -17 -11 4 -16 -4 -19 -30 -3 -28 -1 -33 9 -24
10 8 13 -8 13 -85 0 -53 4 -99 10 -102 6 -4 5 -16 -4 -33 -8 -15 -17 -44 -21
-65 -6 -32 -5 -36 9 -31 13 5 15 1 10 -24 -5 -24 -2 -32 15 -41 18 -10 21 -9
21 7 0 37 -12 82 -21 76 -5 -3 -9 4 -9 16 0 13 4 19 12 14 8 -5 10 10 5 57 -4
44 -3 59 4 46 17 -29 28 -19 27 23 0 25 -5 40 -13 40 -16 0 -25 67 -13 99 4
13 5 29 0 35 -12 16 -9 221 3 223 6 1 9 -24 7 -65 -2 -37 2 -80 8 -96 6 -16 7
-33 3 -37 -4 -4 -6 -39 -4 -76 3 -65 4 -67 16 -39 12 29 13 29 20 7 4 -12 1
-36 -5 -52 -8 -17 -10 -46 -6 -72 4 -25 3 -37 -3 -29 -5 9 -9 -6 -10 -43 0
-33 5 -65 12 -76 15 -21 27 -15 27 14 0 13 5 17 15 13 10 -4 15 1 15 15 0 11
7 27 15 35 13 14 15 13 17 -8 2 -42 -3 -73 -15 -80 -9 -5 -9 -10 1 -20 19 -19
14 -30 -7 -18 -27 14 -30 13 -24 -11 5 -18 3 -20 -16 -14 -14 4 -21 2 -21 -7
-1 -7 -10 -24 -20 -37 -16 -19 -23 -21 -35 -11 -22 18 -35 3 -35 -42 0 -23 3
-38 7 -35 7 8 33 -38 33 -59 0 -19 19 -18 26 1 5 11 10 13 19 5 6 -5 14 -7 18
-4 3 3 19 -9 36 -28 22 -24 30 -43 31 -71 0 -34 3 -38 30 -43 28 -6 30 -8 24
-45 -4 -21 -3 -78 2 -126 8 -84 9 -86 14 -38 l6 50 7 -70 c4 -38 12 -104 17
-145 5 -41 17 -160 25 -265 13 -158 14 -214 4 -332 -11 -135 -7 -233 10 -233
9 0 51 118 51 143 0 9 7 17 15 17 12 0 15 -16 16 -77 1 -70 2 -74 11 -43 17
61 18 63 23 58 2 -2 0 -33 -6 -69 -6 -43 -7 -73 0 -89 9 -24 10 -24 10 8 1 21
6 32 16 32 11 0 15 -11 14 -47 -1 -46 3 -93 17 -193 5 -33 15 -53 39 -76 45
-42 69 -93 90 -188 19 -89 32 -116 52 -109 16 6 16 5 -2 -47 -22 -61 -20 -80
8 -77 18 2 23 -3 25 -32 2 -19 10 -44 18 -57 9 -13 11 -25 5 -28 -5 -4 -12 2
-14 11 -3 13 -5 12 -6 -5 0 -13 -5 -21 -10 -18 -14 9 0 -42 15 -55 10 -8 14
-41 16 -118 1 -58 3 -87 5 -63 4 44 23 60 23 19 0 -13 6 -32 14 -42 13 -18 14
-17 14 17 0 20 8 97 18 170 14 107 19 127 26 103 4 -16 6 -42 2 -57 -3 -14 -1
-29 4 -32 6 -3 13 31 17 82 4 48 11 92 16 97 4 6 11 60 14 120 3 61 11 155 17
210 9 83 13 95 20 70 4 -16 5 -79 2 -140 -4 -60 -4 -108 -1 -105 3 3 11 46 17
95 20 158 29 133 31 -80 1 -193 2 -197 13 -120 6 44 19 91 29 105 20 29 19 31
19 -105 0 -55 2 -89 4 -75 2 14 7 41 10 60 l6 35 14 -40 c7 -22 14 -71 15
-110 l2 -70 8 70 c4 39 11 99 14 135 4 36 11 70 16 76 14 17 70 370 64 397 -3
12 -1 36 5 52 9 27 9 25 5 -15 -4 -44 -4 -44 7 -12 7 20 16 31 24 28 8 -3 18
3 23 12 8 14 11 10 11 -18 l1 -35 14 25 c14 23 15 21 9 -40 -3 -36 -10 -89
-16 -118 -7 -37 -6 -62 1 -80 6 -15 16 -40 22 -57 12 -30 12 -29 30 40 10 39
19 90 19 115 0 41 3 46 23 46 31 0 36 -12 39 -81 l2 -60 3 53 c2 29 8 50 13
47 5 -3 7 -46 3 -100 -6 -92 -5 -95 15 -95 21 0 24 -5 26 -57 1 -10 6 -24 13
-30 11 -13 28 -107 22 -128 -2 -5 3 -35 9 -64 7 -30 10 -73 7 -95 -4 -23 -1
-54 5 -71 26 -66 41 -141 35 -176 -4 -22 -2 -40 4 -44 7 -4 11 3 11 17 1 13 7
34 14 47 13 23 14 23 19 5 3 -10 9 -40 13 -66 4 -31 11 -48 20 -48 8 0 14 -6
15 -12 0 -7 6 3 12 22 8 27 11 30 14 15 10 -53 14 -65 23 -65 6 0 10 18 10 40
0 29 4 40 15 40 9 0 15 -9 15 -25 0 -31 26 -34 35 -4 4 11 4 36 0 55 -3 20 -1
49 6 68 11 29 10 37 -4 51 -22 21 -21 34 2 62 26 31 31 29 32 -9 l2 -33 6 34
c5 27 8 31 17 20 6 -8 15 -27 19 -44 10 -40 6 -158 -6 -169 -5 -6 -9 -19 -8
-30 0 -21 1 -21 8 -1 8 19 8 19 19 -2 7 -12 12 -28 12 -36 0 -7 10 -22 23 -34
12 -11 31 -31 43 -44 12 -13 29 -28 38 -34 19 -11 21 -37 26 -310 2 -131 3
-137 13 -85 l11 55 8 -119 c4 -65 9 -120 11 -123 3 -2 8 74 13 169 l8 173 6
-102 c5 -95 12 -125 26 -110 3 3 13 50 22 104 9 54 19 100 23 103 9 7 46 198
54 285 3 39 13 96 21 128 8 32 19 126 24 210 29 452 26 433 73 473 14 12 27
38 32 60 4 22 12 42 18 46 16 10 23 328 8 337 -20 13 -44 408 -36 606 5 155
29 343 45 358 3 3 6 -135 8 -306 1 -175 7 -326 13 -344 9 -29 3 -74 -18 -129
-3 -8 1 -14 11 -14 11 0 16 9 16 28 0 15 5 34 10 42 11 17 9 23 15 -63 1 -27
8 -54 14 -60 6 -6 11 -36 11 -66 0 -31 5 -63 10 -71 7 -11 10 3 10 45 0 91 22
236 31 205 4 -14 8 -43 8 -65 1 -22 5 -46 10 -54 5 -8 12 88 16 235 8 314 22
608 31 657 4 27 1 50 -11 78 -15 31 -17 54 -12 121 4 46 2 135 -3 198 -7 81
-6 133 2 177 10 55 9 66 -9 110 -19 42 -22 77 -27 277 -4 126 -10 234 -15 240
-5 6 -11 76 -15 156 -3 80 -9 173 -12 207 -5 54 -4 64 11 69 20 8 35 -11 35
-43 0 -13 4 -23 9 -23 17 0 -2 96 -31 158 -17 35 -35 80 -40 100 -27 101 -58
268 -68 362 -6 58 -15 144 -20 191 -6 47 -10 112 -10 145 1 57 1 58 16 34 10
-16 13 -18 8 -5 -3 11 -12 61 -19 110 -6 50 -19 113 -28 140 -9 28 -21 78 -26
111 -5 34 -19 80 -30 102 -11 22 -24 66 -27 96 -6 53 -5 56 15 56 25 0 26 11
5 51 -14 28 -14 33 1 55 18 28 19 28 44 12 21 -13 56 -4 46 12 -3 5 -16 10
-27 10 -41 0 -89 24 -94 47 -3 12 -15 25 -26 28 -16 6 -17 9 -6 22 10 12 9 18
-7 29 -10 8 -22 14 -26 14 -14 0 -21 42 -10 53 20 20 13 85 -9 97 -15 8 -19
17 -14 35 4 16 0 35 -10 49 -14 22 -14 25 0 37 18 15 12 65 -10 83 -18 14 -31
102 -16 111 5 3 10 27 10 52 0 72 13 43 42 -95 28 -134 39 -130 13 5 -8 43
-15 85 -15 93 1 28 17 -11 25 -60 5 -25 10 -39 12 -32 3 7 -4 56 -16 110 -25
124 -67 346 -82 440 -9 54 -9 82 -1 109 7 21 8 41 3 47 -15 18 -17 52 -4 68 9
10 10 24 4 46 -5 17 -7 40 -4 51 3 11 -3 27 -16 40 -12 12 -21 24 -21 28 0 4
-12 19 -26 34 -21 22 -25 36 -25 84 0 32 4 62 10 68 6 6 11 17 11 25 0 8 8 20
17 27 15 11 15 19 4 84 -7 40 -10 83 -7 96 3 13 2 34 -3 47 -5 13 -15 56 -22
96 -7 40 -20 82 -30 93 -16 18 -32 99 -44 224 -5 47 -4 48 6 16 14 -47 32 -26
31 36 -2 161 -5 199 -18 214 -15 17 -9 105 7 115 5 3 9 24 8 47 -1 36 -2 38
-9 17 -6 -20 -8 -15 -9 25 -1 28 -4 60 -7 72 -5 18 -3 21 15 16 19 -5 21 -1
21 35 0 22 2 55 5 73 5 30 4 31 -5 11 -11 -26 -30 -21 -30 9 0 11 -9 39 -19
62 -11 24 -23 55 -26 70 -6 23 -4 27 14 27 23 0 27 10 11 26 -6 6 -6 22 2 46
9 30 8 40 -8 62 -11 14 -38 33 -60 42 l-42 16 -1 71 c-1 86 -18 112 -68 102
-26 -5 -35 -2 -46 17 -27 42 -39 95 -28 117 9 15 7 23 -5 36 -14 14 -15 20 -4
41 18 33 -1 78 -29 69 -14 -4 -23 0 -31 15 -6 11 -8 20 -5 20 11 0 -25 58 -40
63 -8 4 -15 17 -15 31 0 18 -6 25 -22 28 -22 3 -22 7 -20 83 3 80 1 87 -45
170 -6 11 -17 35 -24 53 -10 29 -16 33 -38 29 -23 -5 -30 1 -63 56 -40 69 -88
171 -88 190 0 11 -39 68 -40 57 0 -3 9 -29 20 -59 21 -53 51 -183 45 -189 -1
-2 -44 100 -94 225 -82 206 -90 223 -86 173z m209 -426 c10 -25 -1 -29 -14 -5
-6 12 -7 21 -1 21 5 0 12 -7 15 -16z m65 -54 c5 -17 6 -28 2 -25 -5 3 -14 19
-20 35 -5 17 -6 28 -2 25 5 -3 14 -19 20 -35z m-54 -232 c8 -21 11 -38 6 -38
-8 0 -41 70 -41 87 0 15 20 -14 35 -49z m48 -38 c-9 -9 -41 44 -35 58 3 10 11
4 23 -19 9 -19 15 -36 12 -39z m12 -80 c3 -5 1 -10 -4 -10 -6 0 -11 5 -11 10
0 6 2 10 4 10 3 0 8 -4 11 -10z m-1795 -385 c5 -5 11 -28 15 -49 11 -59 -11
-36 -24 25 -11 48 -14 94 -4 54 3 -11 9 -24 13 -30z m2200 -255 c12 -8 11 -10
-7 -10 -12 0 -25 5 -28 10 -8 13 15 13 35 0z m-2196 -336 c4 -9 2 -13 -5 -8
-6 4 -15 0 -20 -7 -7 -11 -9 -11 -9 2 0 30 24 39 34 13z m133 -616 c-2 -13 -4
-3 -4 22 0 25 2 35 4 23 2 -13 2 -33 0 -45z m-9 -298 l0 -45 -9 40 c-4 22 -8
63 -7 90 l1 50 8 -45 c4 -25 7 -65 7 -90z m43 -311 c16 -131 17 -198 4 -201
-10 -3 -18 63 -28 242 -7 123 8 97 24 -41z m10 -252 c-8 -8 -11 -7 -11 4 0 20
13 34 18 19 3 -7 -1 -17 -7 -23z m19 -51 c0 -19 3 -43 6 -53 3 -10 -2 -7 -10
7 -17 28 -21 80 -6 80 6 0 10 -15 10 -34z m-268 -1118 c-7 -7 -12 -8 -12 -2 0
14 12 26 19 19 2 -3 -1 -11 -7 -17z m281 -293 c4 -8 2 -17 -3 -20 -6 -4 -10 3
-10 14 0 25 6 27 13 6z m2418 -352 c24 -52 62 -206 49 -198 -5 3 -11 23 -15
45 -4 24 -16 47 -29 58 -17 13 -24 32 -29 80 -4 34 -5 62 -2 62 2 0 14 -21 26
-47z m-2458 2 c-3 -9 -8 -14 -10 -11 -3 3 -2 9 2 15 9 16 15 13 8 -4z m244
-121 c2 -7 -2 -18 -9 -25 -7 -8 -21 -30 -30 -49 -9 -19 -26 -51 -37 -70 -10
-19 -31 -60 -46 -90 -42 -86 -47 -85 -43 10 3 75 7 91 36 135 18 27 45 62 60
76 27 27 62 34 69 13z m196 -82 c-3 -23 -10 -42 -14 -42 -12 0 -11 17 3 57 15
42 18 38 11 -15z m-94 -247 c0 -76 -4 -115 -13 -127 -15 -21 -26 -14 -26 16 0
16 2 18 9 7 6 -9 9 32 10 105 0 65 1 139 2 164 l2 45 7 -50 c5 -27 8 -99 9
-160z m-226 35 c-54 -92 -76 -108 -31 -22 44 81 57 102 68 102 5 0 -12 -36
-37 -80z m194 -12 c-3 -8 -6 -5 -6 6 -1 11 2 17 5 13 3 -3 4 -12 1 -19z m-419
-8 c-14 -22 -24 -19 -15 5 4 8 11 15 17 15 6 0 6 -7 -2 -20z m321 -524 c-9 -8
-10 -7 -5 7 3 10 7 24 7 30 1 7 3 4 6 -7 3 -10 -1 -23 -8 -30z m-64 -131 c9
-87 -3 -199 -20 -185 -6 5 -15 7 -18 4 -3 -4 -9 5 -13 20 -7 28 -19 34 -27 14
-3 -7 -6 -1 -6 13 -1 14 -4 47 -7 73 -5 30 -3 46 4 46 6 0 13 -21 15 -47 2
-32 4 -20 5 34 2 76 4 82 25 86 12 2 25 5 28 6 4 0 10 -28 14 -64z m2502 -767
c4 -78 3 -111 -6 -122 -8 -9 -10 -28 -5 -50 6 -37 -2 -46 -24 -24 -8 8 -12 46
-12 108 0 64 3 90 10 80 6 -10 7 7 3 51 -3 37 -2 80 2 95 l8 29 8 -30 c5 -16
12 -78 16 -137z m43 -30 c14 -78 13 -65 12 -176 -1 -59 -6 -91 -12 -87 -5 3
-10 16 -10 28 0 16 -3 18 -9 9 -14 -23 -20 48 -14 172 3 64 9 116 13 116 5 0
13 -28 20 -62z m-2185 -234 c8 -44 -1 -56 -15 -20 -12 33 -13 56 -1 56 5 0 12
-16 16 -36z m17 -131 c7 -9 7 -22 -2 -43 -16 -38 -7 -68 15 -50 13 11 15 4 15
-53 l0 -66 -29 10 c-37 13 -40 22 -31 89 6 41 4 61 -6 77 -17 27 -18 41 -2 25
7 -7 16 -12 21 -12 5 0 -1 8 -13 18 -22 18 -22 18 -4 53 l19 34 3 -35 c2 -19
8 -41 14 -47z m-71 17 c6 -79 -1 -180 -11 -180 -6 0 -10 40 -10 100 0 60 4
100 10 100 6 0 11 -9 11 -20z m-301 -9 c0 -6 -4 -13 -10 -16 -5 -3 -10 1 -10
9 0 9 5 16 10 16 6 0 10 -4 10 -9z m2619 -209 c0 -30 -2 -33 -9 -17 -12 28
-12 67 0 60 6 -3 10 -23 9 -43z m-13 -201 c-2 -76 -8 -136 -15 -147 -10 -15
-11 -2 -7 66 3 47 6 113 6 148 0 34 4 62 10 62 6 0 8 -50 6 -129z m-78 -126
c0 -74 -2 -83 -9 -50 -4 22 -8 83 -7 135 0 80 2 88 9 50 4 -25 7 -85 7 -135z
m-1998 -1045 c0 -5 -5 -10 -11 -10 -5 0 -7 5 -4 10 3 6 8 10 11 10 2 0 4 -4 4
-10z m2027 -52 c-3 -8 -6 -5 -6 6 -1 11 2 17 5 13 3 -3 4 -12 1 -19z m-506
-249 c-8 -51 -9 -52 -10 -14 -1 42 10 97 16 79 2 -6 -1 -35 -6 -65z m-1074
-96 c-3 -10 -5 -4 -5 12 0 17 2 24 5 18 2 -7 2 -21 0 -30z m34 -56 c-13 -13
-15 11 -4 40 7 16 8 15 11 -6 2 -13 -1 -28 -7 -34z m69 -153 c-9 -43 -15 -53
-23 -44 -9 10 -9 14 1 17 6 3 12 19 12 36 0 18 3 43 7 57 13 46 15 -6 3 -66z
m-373 9 c-3 -10 -5 -2 -5 17 0 19 2 27 5 18 2 -10 2 -26 0 -35z m510 15 c-3
-8 -6 -5 -6 6 -1 11 2 17 5 13 3 -3 4 -12 1 -19z m-464 -138 c-8 -29 -21 -25
-15 5 2 14 8 23 12 20 5 -3 6 -14 3 -25z m17 -125 c0 -14 -4 -25 -10 -25 -11
0 -14 33 -3 43 11 11 13 8 13 -18z m1109 -133 c0 -13 -3 -20 -9 -17 -5 3 -9
27 -9 53 1 42 2 44 9 17 4 -16 8 -40 9 -53z m-1023 -188 c-10 -40 -28 -28 -20
14 4 20 9 42 13 47 9 14 14 -32 7 -61z m1331 -691 c-3 -10 -5 -2 -5 17 0 19 2
27 5 18 2 -10 2 -26 0 -35z"/>
<path d="M3171 4004 c0 -11 3 -14 6 -6 3 7 2 16 -1 19 -3 4 -6 -2 -5 -13z"/>
<path d="M1827 10883 c9 -26 18 -43 20 -37 4 11 -24 84 -32 84 -2 0 3 -21 12
-47z"/>
<path d="M1246 10654 c-8 -22 4 -40 15 -23 11 18 11 39 0 39 -5 0 -12 -7 -15
-16z"/>
<path d="M512 10575 c0 -16 2 -22 5 -12 2 9 2 23 0 30 -3 6 -5 -1 -5 -18z"/>
<path d="M856 10567 c3 -10 9 -15 12 -12 3 3 0 11 -7 18 -10 9 -11 8 -5 -6z"/>
<path d="M164 9445 c8 -16 29 -43 47 -60 l32 -30 -21 30 c-11 17 -33 44 -47
60 l-26 30 15 -30z"/>
<path d="M2720 9035 c0 -8 5 -15 10 -15 6 0 10 7 10 15 0 8 -4 15 -10 15 -5 0
-10 -7 -10 -15z"/>
<path d="M2722 8600 c0 -14 4 -38 8 -55 7 -27 8 -27 8 -5 0 14 -4 39 -8 55 -7
27 -8 27 -8 5z"/>
<path d="M2741 8494 c0 -11 3 -14 6 -6 3 7 2 16 -1 19 -3 4 -6 -2 -5 -13z"/>
<path d="M2837 7749 c13 -14 26 -40 29 -58 8 -39 27 -27 22 15 -2 20 -13 34
-38 48 l-35 20 22 -25z"/>
<path d="M82 6945 c-7 -15 -11 -30 -8 -32 7 -7 28 36 24 49 -2 6 -9 -2 -16
-17z"/>
<path d="M42 6877 c-23 -24 -28 -37 -14 -37 4 0 15 14 24 30 21 36 18 37 -10
7z"/>
<path d="M143 6808 c-34 -39 -38 -52 -9 -33 28 18 53 55 38 55 -5 0 -18 -10
-29 -22z"/>
<path d="M236 6605 c-9 -26 -7 -32 5 -12 6 10 9 21 6 23 -2 3 -7 -2 -11 -11z"/>
<path d="M3110 6201 c0 -5 5 -13 10 -16 6 -3 10 -2 10 4 0 5 -4 13 -10 16 -5
3 -10 2 -10 -4z"/>
<path d="M321 5695 c-13 -8 -28 -20 -32 -28 -7 -12 -3 -12 26 1 19 9 37 22 39
29 6 16 -1 15 -33 -2z"/>
<path d="M271 5633 c0 -6 -4 -20 -7 -30 -5 -14 -4 -15 5 -7 7 7 11 20 8 30 -3
11 -5 14 -6 7z"/>
<path d="M390 5490 c-6 -11 -8 -20 -6 -20 3 0 10 9 16 20 6 11 8 20 6 20 -3 0
-10 -9 -16 -20z"/>
<path d="M557 5400 c-3 -10 0 -26 7 -35 9 -13 11 -10 13 15 2 34 -12 49 -20
20z"/>
<path d="M721 5404 c0 -11 3 -14 6 -6 3 7 2 16 -1 19 -3 4 -6 -2 -5 -13z"/>
<path d="M559 5267 c-2 -31 0 -72 6 -90 l9 -32 3 30 c2 17 0 57 -5 90 l-8 60
-5 -58z"/>
<path d="M355 3860 c-8 -13 5 -13 25 0 13 8 13 10 -2 10 -9 0 -20 -4 -23 -10z"/>
<path d="M295 3849 c-4 -6 -5 -13 -2 -16 7 -7 27 6 27 18 0 12 -17 12 -25 -2z"/>
<path d="M455 3850 c3 -5 13 -10 21 -10 8 0 14 5 14 10 0 6 -9 10 -21 10 -11
0 -17 -4 -14 -10z"/>
<path d="M790 3316 c0 -8 5 -18 10 -21 6 -3 10 1 10 9 0 8 -4 18 -10 21 -5 3
-10 -1 -10 -9z"/>
<path d="M790 3220 c0 -5 5 -10 11 -10 5 0 7 5 4 10 -3 6 -8 10 -11 10 -2 0
-4 -4 -4 -10z"/>
<path d="M3365 2891 c-7 -13 12 -51 26 -51 14 0 7 52 -8 57 -6 2 -14 -1 -18
-6z"/>
<path d="M3348 2353 c-2 -10 6 -40 19 -68 13 -27 23 -61 23 -75 0 -14 5 -32
10 -40 7 -11 9 -7 5 15 -2 17 -6 48 -9 70 -13 91 -38 144 -48 98z"/>
<path d="M1082 2080 c-8 -13 -8 -20 -2 -20 6 0 13 7 17 15 9 24 -1 27 -15 5z"/>
<path d="M1010 2030 c0 -11 4 -20 9 -20 5 0 7 9 4 20 -3 11 -7 20 -9 20 -2 0
-4 -9 -4 -20z"/>
<path d="M912 2020 c0 -14 2 -19 5 -12 2 6 2 18 0 25 -3 6 -5 1 -5 -13z"/>
<path d="M1151 1884 c0 -11 3 -14 6 -6 3 7 2 16 -1 19 -3 4 -6 -2 -5 -13z"/>
<path d="M2071 1578 c0 -9 -4 -25 -7 -35 -5 -17 -5 -17 6 0 6 10 9 25 7 35 -4
15 -5 15 -6 0z"/>
<path d="M3080 1574 c0 -8 5 -12 10 -9 6 3 10 10 10 16 0 5 -4 9 -10 9 -5 0
-10 -7 -10 -16z"/>
<path d="M2133 1485 c0 -22 2 -30 4 -17 2 12 2 30 0 40 -3 9 -5 -1 -4 -23z"/>
<path d="M1980 1471 c0 -11 5 -23 10 -26 6 -4 10 5 10 19 0 14 -4 26 -10 26
-5 0 -10 -9 -10 -19z"/>
<path d="M1871 1424 c0 -11 3 -14 6 -6 3 7 2 16 -1 19 -3 4 -6 -2 -5 -13z"/>
<path d="M2146 1324 c-8 -21 -8 -24 3 -24 12 0 22 28 12 35 -5 3 -12 -2 -15
-11z"/>
<path d="M1321 1254 c0 -11 3 -14 6 -6 3 7 2 16 -1 19 -3 4 -6 -2 -5 -13z"/>
<path d="M1380 1129 c0 -5 5 -7 10 -4 6 3 10 8 10 11 0 2 -4 4 -10 4 -5 0 -10
-5 -10 -11z"/>
<path d="M2531 984 c0 -11 3 -14 6 -6 3 7 2 16 -1 19 -3 4 -6 -2 -5 -13z"/>
<path d="M1663 925 c0 -33 2 -45 4 -27 2 18 2 45 0 60 -2 15 -4 0 -4 -33z"/>
<path d="M2510 842 c0 -17 4 -34 10 -37 6 -4 7 6 3 27 -8 44 -13 48 -13 10z"/>
</g>
</svg>
